<svg width="24" height="24" viewBox="0 0 24 24" fill="none" xmlns="http://www.w3.org/2000/svg">
<path d="M17.7602 10.7998C17.8802 10.4398 18.0002 10.0798 18.0002 9.5998C18.0002 6.9598 15.8402 4.7998 13.2002 4.7998C11.4002 4.7998 9.72019 5.8798 9.0002 7.4398C8.64019 7.3198 8.16019 7.1998 7.80019 7.1998C6.12019 7.1998 4.8002 8.5198 4.8002 10.1998C4.8002 10.4398 4.80019 10.6798 4.92019 10.7998C2.7602 11.1598 1.2002 12.8398 1.2002 14.9998C1.2002 17.2798 3.1202 19.1998 5.4002 19.1998H17.4002C19.6802 19.1998 21.6002 17.2798 21.6002 14.9998C21.6002 12.8398 19.9202 11.0398 17.7602 10.7998ZM10.2002 17.8798L6.3602 14.0398L8.04019 12.3598L10.2002 14.5198L14.7602 9.9598L16.4402 11.6398L10.2002 17.8798Z" fill="white"/>
</svg>
