<svg width="24" height="24" viewBox="0 0 24 24" fill="none" xmlns="http://www.w3.org/2000/svg">
<path fill-rule="evenodd" clip-rule="evenodd" d="M21.655 2.24507C21.5057 2.1154 21.3213 2.03289 21.1252 2.00797C20.929 1.98306 20.7299 2.01684 20.553 2.10507L2.55295 11.1051C2.38655 11.188 2.24656 11.3157 2.1487 11.4738C2.05085 11.6319 1.99902 11.8141 1.99902 12.0001C1.99902 12.186 2.05085 12.3682 2.1487 12.5263C2.24656 12.6844 2.38655 12.8121 2.55295 12.8951L20.553 21.8951C20.7299 21.9836 20.9291 22.0177 21.1254 21.9929C21.3217 21.9682 21.5063 21.8858 21.6557 21.7562C21.8052 21.6265 21.9128 21.4554 21.965 21.2646C22.0172 21.0738 22.0116 20.8717 21.949 20.6841L19.387 13.0001H14C13.7347 13.0001 13.4804 12.8947 13.2928 12.7072C13.1053 12.5196 13 12.2653 13 12.0001C13 11.7348 13.1053 11.4805 13.2928 11.293C13.4804 11.1054 13.7347 11.0001 14 11.0001H19.387L21.95 3.31607C22.0123 3.12848 22.0176 2.92662 21.9653 2.736C21.913 2.54538 21.8053 2.37454 21.656 2.24507H21.655Z" fill="white"/>
</svg>
