<svg width="18" height="26" viewBox="0 0 18 26" fill="none" xmlns="http://www.w3.org/2000/svg">
<path d="M15.4286 24.7436L15.4311 17.0293C13.6079 18.4936 11.3384 19.2898 9 19.2857C6.66259 19.2896 4.39417 18.4938 2.57143 17.0306L2.57529 24.7449C2.57571 24.9212 2.62446 25.094 2.71625 25.2446C2.80804 25.3951 2.93935 25.5176 3.0959 25.5987C3.25245 25.6798 3.42825 25.7165 3.60417 25.7047C3.7801 25.6929 3.94942 25.633 4.09371 25.5317L9.00129 22.077L13.9101 25.5317C14.0545 25.6335 14.2241 25.6936 14.4003 25.7055C14.5766 25.7175 14.7527 25.6808 14.9095 25.5995C15.0663 25.5182 15.1978 25.3953 15.2895 25.2444C15.3813 25.0935 15.4298 24.9202 15.4299 24.7436H15.4286ZM18 9C18 7.8181 17.7672 6.64778 17.3149 5.55585C16.8626 4.46392 16.1997 3.47177 15.364 2.63604C14.5282 1.80031 13.5361 1.13738 12.4442 0.685084C11.3522 0.232792 10.1819 0 9 0C7.8181 0 6.64778 0.232792 5.55585 0.685084C4.46392 1.13738 3.47177 1.80031 2.63604 2.63604C1.80031 3.47177 1.13738 4.46392 0.685084 5.55585C0.232792 6.64778 -1.76116e-08 7.8181 0 9C3.55683e-08 11.3869 0.948211 13.6761 2.63604 15.364C4.32387 17.0518 6.61305 18 9 18C11.3869 18 13.6761 17.0518 15.364 15.364C17.0518 13.6761 18 11.3869 18 9ZM9.29443 4.68257L10.467 7.065L13.095 7.44429C13.365 7.48286 13.4717 7.81457 13.2776 8.00357L11.376 9.855L11.826 12.4727C11.8364 12.533 11.8297 12.595 11.8067 12.6518C11.7836 12.7085 11.7452 12.7576 11.6957 12.7936C11.6462 12.8296 11.5876 12.851 11.5266 12.8554C11.4655 12.8598 11.4045 12.8471 11.3503 12.8186L9 11.5817L6.651 12.8186C6.59683 12.8471 6.53577 12.8598 6.47472 12.8554C6.41368 12.851 6.35509 12.8296 6.30558 12.7936C6.25608 12.7576 6.21764 12.7085 6.19461 12.6518C6.17158 12.595 6.16489 12.533 6.17529 12.4727L6.62529 9.85629L4.72243 8.00486C4.67821 7.96215 4.64688 7.90788 4.63203 7.84822C4.61718 7.78857 4.6194 7.72594 4.63844 7.66749C4.65747 7.60903 4.69256 7.55711 4.7397 7.51764C4.78683 7.47818 4.84411 7.45276 4.905 7.44429L7.533 7.065L8.70557 4.68257C8.73256 4.62749 8.77445 4.58107 8.8265 4.54861C8.87855 4.51615 8.93866 4.49894 9 4.49894C9.06134 4.49894 9.12145 4.51615 9.1735 4.54861C9.22555 4.58107 9.26744 4.62749 9.29443 4.68257Z" fill="#FFCE31"/>
</svg>
